<svg display="block" height="400" width="400" xmlns="http://www.w3.org/2000/svg"><g fill-rule="evenodd"><path d="m172.901 255.4c.004.88.086 1.193.182.695.096-.497.092-1.217-.008-1.6-.1-.382-.179.025-.174.905m105.999 91.676c.385.1 1.015.1 1.4 0 .385-.101.07-.183-.7-.183s-1.085.082-.7.183"/><path d="m172.92 258.8c0 1.21.075 1.705.167 1.1.091-.605.091-1.595 0-2.2-.092-.605-.167-.11-.167 1.1" fill="#00f"/><path d="m265.129 13.367c-1.468.238-2.803.568-2.966.733s-.716.3-1.23.3c-.513 0-.933.18-.933.4s-.45.4-1 .4-1 .16-1 .355c0 .196-.63.474-1.4.619-.77.144-1.4.434-1.4.644s-.27.382-.6.382-.6.18-.6.4-.27.4-.6.4-.6.18-.6.4-.231.4-.513.4c-1.07 0-5.723 4.296-7.487 6.912-.55.815-1.135 1.484-1.3 1.485-.165.002-.3.273-.3.603s-.18.6-.4.6-.4.36-.4.8-.177.8-.392.8c-.216 0-.516.495-.666 1.1-.151.605-.604 1.69-1.008 2.412s-.734 1.631-.734 2.02-.193.901-.429 1.137-.532 2.162-.659 4.28c-.126 2.118-.383 3.851-.571 3.851-.446 0-.444 2.689.003 2.965.189.117.434 1.801.545 3.741.111 1.941.406 3.926.656 4.411.25.486.635 1.241.855 1.678s.4 1.157.4 1.6.135.806.3.806c.165.001.615.766.999 1.7.385.935 1.15 2.222 1.7 2.861.551.639 1.001 1.319 1.001 1.51 0 .57 6.796 7.128 7.388 7.128.3 0 .605.172.679.383.073.21 1.087.903 2.254 1.54l2.121 1.157-1.111.728c-.611.401-1.462 1.055-1.891 1.455-.43.401-1.109.832-1.511.959-.401.128-.729.4-.729.605s-.188.373-.417.373c-.392 0-.845.313-2.168 1.5-.307.275-.711.5-.898.5s-.6.36-.917.8-.764.8-.992.8c-.229 0-.901.45-1.495 1-.593.55-1.197 1-1.342 1-.359 0-4.337 2.909-4.504 3.293-.074.169-.312.307-.529.307s-.646.225-.953.5c-1.323 1.187-1.776 1.5-2.168 1.5-.229 0-.417.141-.417.314 0 .172-.572.651-1.27 1.064-1.199.708-1.601 1.01-3.625 2.722-.455.385-.935.7-1.066.701-.132 0-.869.54-1.639 1.199s-1.631 1.199-1.913 1.199c-.281.001-.616.271-.742.601-.127.33-.447.6-.712.6s-.869.36-1.341.8c-1.156 1.077-1.402 1.018-2.064-.5-.312-.715-.896-1.591-1.298-1.947-.401-.356-.73-.836-.73-1.068 0-.602-1.343-2.879-1.7-2.882-.165-.002-.3-.273-.3-.603s-.168-.6-.373-.6-.497-.391-.649-.869-.614-1.232-1.027-1.676c-.413-.443-.751-1.042-.751-1.33 0-.289-.139-.525-.309-.525s-.648-.63-1.063-1.4-.906-1.4-1.091-1.4-.337-.27-.337-.6-.151-.6-.336-.6c-.184 0-.538-.443-.784-.985-.479-1.05-4.192-6.296-5.373-7.59-.389-.427-.707-.914-.707-1.082 0-.169-.45-.757-1-1.307s-1-1.169-1-1.376c0-.208-.63-.93-1.4-1.606s-1.4-1.4-1.4-1.607c0-.208-.585-.986-1.3-1.729-.715-.742-1.818-2.035-2.45-2.873-.633-.837-2.253-2.658-3.6-4.045-1.348-1.387-3.359-3.484-4.469-4.661-2.502-2.65-8.833-8.505-10.181-9.415-.55-.372-1.135-.896-1.3-1.165-.166-.269-1.516-1.353-3-2.409-1.485-1.057-3.049-2.242-3.475-2.635-.427-.393-1.012-.715-1.3-.715-.289 0-.525-.168-.525-.373s-.405-.501-.9-.657c-.495-.157-1.17-.574-1.5-.927-.533-.571-1.396-1.108-4.2-2.614-.44-.236-.89-.519-1-.629-.517-.517-2.792-1.6-3.362-1.6-.351 0-.639-.135-.641-.3-.004-.359-1.941-1.3-2.677-1.3-.286 0-.52-.172-.52-.382s-.63-.5-1.4-.644c-.77-.145-1.4-.423-1.4-.619 0-.195-.45-.355-1-.355s-1-.18-1-.4-.45-.4-1-.4-1-.167-1-.371-.99-.495-2.2-.646-2.2-.434-2.2-.629-.63-.354-1.4-.354-1.4-.161-1.4-.358c0-.362-.419-.446-6.2-1.257-4.098-.574-21.254-.291-21.907.362-.249.249-1.047.453-1.773.453s-1.32.18-1.32.4-.63.4-1.4.4-1.4.157-1.4.348c0 .192-.893.467-1.984.612s-2.091.438-2.223.652c-.132.213-.68.388-1.217.388s-.976.138-.976.306c0 .311-2.91 1.694-3.565 1.694-.414 0-3.735 1.68-4.035 2.041-.11.132-.92.576-1.8.985s-1.844.981-2.142 1.272-1.288.908-2.2 1.373c-.912.464-1.949 1.178-2.305 1.586-.356.409-.773.743-.927.743-.246 0-2.893 1.855-3.426 2.4-.11.113-1.368 1.194-2.796 2.402-3.261 2.76-10.792 10.301-12.28 12.295-.617.827-1.617 1.98-2.223 2.563-.605.584-1.101 1.236-1.101 1.45s-.63 1.077-1.4 1.918-1.4 1.665-1.4 1.832c0 .782-2.126 2.34-3.195 2.34-.637 0-1.269.18-1.405.4s-1.317.4-2.624.4-2.376.148-2.376.33c0 .181-2.295.544-5.1.807-2.805.262-6.18.579-7.5.703-1.32.125-2.571.392-2.78.594-.209.201-1.424.366-2.7.366-1.28 0-2.32.179-2.32.4 0 .22-.78.4-1.733.4-.954 0-1.847.114-1.986.253-.398.397.482 1.747 1.139 1.747.325 0 .903.171 1.285.381 1.662.911 6.87 3.197 7.837 3.44.582.146 1.058.426 1.058.622 0 .197.36.357.8.357s.8.159.8.353 1.078.689 2.397 1.1c1.318.411 2.398.882 2.4 1.047.001.165.363.3.803.3s.8.144.8.32c0 .175.675.56 1.5.853 2.697.96 4.5 1.81 4.5 2.121 0 .168.272.306.605.306s.918.172 1.3.382 1.55.74 2.595 1.177l1.9.796v3.799c0 2.089.156 3.895.347 4.013s.461 1.524.601 3.124c.363 4.144 1.199 9.395 1.552 9.745.165.163.3.987.3 1.831 0 .843.161 1.533.358 1.533s.454.675.572 1.5c.452 3.178 1.123 6.329 1.488 6.995.21.382.382 1.136.382 1.676s.18 1.093.4 1.229.4.777.4 1.424.159 1.176.354 1.176.478.99.629 2.2.442 2.2.646 2.2.371.439.371.976.18 1.088.4 1.224.4.676.4 1.2.17 1.058.377 1.186.498 1.041.646 2.028c.148.988.429 1.894.623 2.015.195.12.354.568.354.995s.18.776.4.776.4.439.4.976.156 1.073.347 1.192c.192.118.464.938.605 1.823.142.885.435 1.609.653 1.609.217 0 .395.439.395.976s.18 1.088.4 1.224.4.597.4 1.024.164.776.365.776.486.72.635 1.6.434 1.6.635 1.6.365.45.365 1 .18 1 .4 1 .4.36.4.8.18.8.4.8.401.315.402.7c.002.385.272 1.216.6 1.846.329.63.598 1.395.598 1.7s.18.554.4.554.4.36.4.8.16.8.357.8c.196 0 .474.47.618 1.044.358 1.426 1.914 4.725 2.306 4.889.176.074.319.444.319.824 0 .379.264 1.039.587 1.467.323.427.593 1.091.6 1.476s.193.7.413.7.4.27.4.6.18.6.4.6.4.271.4.603c0 .587 1.959 4.597 2.441 4.997.132.11.573.92.979 1.8s.838 1.69.96 1.8.491.74.821 1.4c.329.66.824 1.438 1.099 1.729.275.29.5.785.5 1.1 0 .314.18.571.4.571s.4.178.4.396.81 1.659 1.8 3.204 1.8 2.986 1.8 3.204.139.396.309.396.648.63 1.063 1.4.906 1.4 1.091 1.4.337.193.337.429c0 .235.225.679.5.986 1.077 1.201 1.5 1.761 1.5 1.986 0 .13.45.685 1 1.235s1 1.145 1 1.323c0 .177.516.863 1.147 1.523s1.318 1.506 1.527 1.879c1.381 2.467 14.183 15.346 18.355 18.465.864.645 1.751 1.364 1.971 1.597s1.266 1.043 2.325 1.8 2.435 1.782 3.058 2.277 1.317.9 1.541.9c.225 0 .469.138.543.307.073.169 1.116.934 2.317 1.7 3.161 2.016 3.736 2.351 4.516 2.633.385.139.7.412.7.607 0 .194.36.353.8.353s.8.14.8.312.9.661 2 1.088 2 .916 2 1.088.36.312.8.312.8.138.8.306c0 .321 2.92 1.694 3.603 1.694.218 0 .397.18.397.4s.45.4 1 .4 1 .18 1 .4.249.4.554.4 1.07.269 1.7.598c.63.328 1.551.598 2.046.6.495.001.9.182.9.402s.45.4 1 .4 1 .14 1 .311c0 .172 1.125.628 2.5 1.016 1.375.387 2.813.877 3.195 1.088.382.212 1.147.385 1.7.385s1.005.16 1.005.355c0 .364.381.47 4.726 1.315l2.526.491-.171 17.019c-.141 14.116-.265 17.035-.726 17.106-.849.13-7.895.5-14.355.753-3.19.125-5.971.392-6.18.594s-2.673.367-5.476.367-5.192.153-5.308.341c-.115.188-3.269.437-7.007.555-7.965.251-9.037.811-7.786 4.071.343.895 63.374.977 64.115.084.885-1.066-1.052-4.251-2.585-4.251-.535 0-.973-.18-.973-.4s-.45-.4-1-.4-1-.18-1-.4-.302-.4-.672-.4c-.369 0-1.269-.216-2-.48l-1.328-.481v-16.363-16.364l1.5.268c6.083 1.085 43.286 1.167 44.355.098.153-.153 1.598-.278 3.212-.278h2.933v16.8 16.8h-3.576c-1.967 0-3.688.18-3.824.4-.138.223-1.996.4-4.2.4-2.174 0-4.047.152-4.161.337-.115.186-3.141.468-6.724.627-5.704.254-7.616.381-8.815.585-.165.028-.3.765-.3 1.639v1.587l16.9.193c9.295.106 21.085.305 26.2.441l9.3.248v-.949c0-2.435-2.037-3.908-5.406-3.908-.547 0-.994-.18-.994-.4s-.63-.4-1.4-.4-1.4-.18-1.4-.4-.585-.406-1.3-.413c-2.825-.027-2.7.797-2.7-17.731v-16.656h2c1.1 0 2-.154 2-.343 0-.188 1.648-.467 3.662-.619s3.982-.448 4.374-.657c.391-.21 1.433-.381 2.314-.381.882 0 1.714-.18 1.85-.4s.957-.4 1.824-.4 1.576-.159 1.576-.353 1.349-.479 2.997-.634c1.649-.154 3.099-.446 3.224-.647.124-.201.846-.366 1.603-.366s1.376-.18 1.376-.4.63-.4 1.4-.4 1.4-.155 1.4-.344c0-.19.913-.453 2.029-.585 2.04-.241 4.375-.868 5.666-1.52.382-.193 1.147-.351 1.7-.351s1.005-.167 1.005-.371.992-.495 2.205-.647 2.304-.434 2.424-.629c.12-.194.647-.353 1.171-.353s1.064-.18 1.2-.4.676-.4 1.2-.4 1.051-.159 1.171-.354c.121-.194 1.027-.475 2.015-.623.987-.148 1.9-.439 2.028-.646s.662-.377 1.186-.377 1.064-.18 1.2-.4.599-.4 1.029-.4 1.094-.169 1.476-.377c.382-.207 1.775-.685 3.095-1.062 1.32-.378 2.571-.838 2.78-1.024.209-.185.704-.337 1.1-.337s.72-.18.72-.4.322-.4.715-.4c.806 0 4.744-1.326 5.153-1.735.146-.146.595-.265.999-.265.403 0 .733-.18.733-.4s.405-.406.9-.414 1.35-.272 1.9-.586 1.405-.578 1.9-.586.9-.194.9-.414.349-.4.776-.4.888-.18 1.024-.4.597-.4 1.024-.4.776-.157.776-.35c0-.192.584-.467 1.297-.609 1.646-.33 3.503-1.145 3.503-1.539 0-.166.332-.302.739-.302.406 0 1.261-.248 1.9-.55.638-.303 1.746-.797 2.461-1.098s1.3-.683 1.3-.85c0-.166.45-.302 1-.302s1-.16 1-.355c0-.196.63-.474 1.4-.619.77-.144 1.4-.434 1.4-.644s.36-.382.8-.382.8-.18.8-.4.27-.4.6-.4.6-.18.6-.4.287-.4.638-.4c.706 0 3.085-1.227 3.295-1.7.074-.165.389-.3.7-.3.312 0 .567-.18.567-.4s.27-.4.6-.4c.373 0 .6-.378.6-1v-1h-5.5c-6.146.001-13.686-1.135-16.195-2.439-.382-.199-1.006-.361-1.386-.361-.626 0-2.839-.696-5.219-1.642-2.336-.929-2.796-1.118-4.16-1.717-.804-.353-1.749-.641-2.1-.641-.352 0-.64-.18-.64-.4s-.264-.4-.586-.4-1.392-.45-2.377-1-2.071-1-2.414-1-.623-.18-.623-.4-.19-.4-.421-.4c-.232 0-1.084-.45-1.893-1s-1.79-1-2.179-1-.707-.18-.707-.4-.27-.4-.6-.4-.6-.153-.6-.339c0-.187-.765-.677-1.7-1.088-.935-.412-1.973-1.025-2.306-1.361-.643-.65-1.804-1.437-2.794-1.894-.33-.153-.949-.602-1.375-.998-.427-.396-1.012-.72-1.3-.72-.289 0-.525-.168-.525-.373s-.405-.501-.9-.657c-.495-.157-1.191-.619-1.547-1.027-.356-.409-.768-.743-.917-.743-.148 0-.487-.183-.753-.407-1.571-1.325-2.45-2.004-3.689-2.847-.764-.52-1.39-1.081-1.391-1.246-.002-.165-.207-.3-.456-.3s-.744-.316-1.1-.702-1.457-1.351-2.447-2.145-2.376-1.963-3.081-2.598c-.704-.635-2.192-1.965-3.305-2.955-3.036-2.698-9.614-9.216-9.615-9.527-.001-.15-.542-.633-1.202-1.073-.661-.44-1.295-1.089-1.408-1.443-.114-.353-1.373-1.861-2.798-3.351s-2.591-2.828-2.591-2.974-.585-.89-1.3-1.652c-.715-.763-1.646-1.926-2.068-2.584s-1.097-1.431-1.5-1.719c-.403-.287-.732-.751-.732-1.03s-.45-.93-1-1.447-1-1.178-1-1.47c0-.291-.168-.53-.373-.53s-.474-.315-.598-.7-.752-1.315-1.397-2.067c-.644-.753-1.482-2.058-1.862-2.9-.381-.843-.844-1.533-1.031-1.533-.186 0-.339-.27-.339-.6s-.16-.6-.357-.6c-.196 0-.469-.45-.607-1s-.428-1-.644-1c-.215 0-.392-.36-.392-.8s-.18-.8-.4-.8-.4-.27-.4-.6-.18-.6-.4-.6-.4-.222-.4-.494c0-.629-2.1-4.862-2.5-5.039-.165-.074-.3-.386-.3-.695 0-.308-.63-1.748-1.4-3.199-1.546-2.914-1.661-3.373-.849-3.373.303 0 .781-.278 1.063-.617.45-.542 4.847-3.68 6.702-4.783.37-.22.966-.715 1.325-1.1s.814-.7 1.01-.7.842-.45 1.436-1c.593-.55 1.266-1 1.496-1 .229 0 .417-.168.417-.373s.339-.481.753-.612c.415-.132 1.313-.774 1.997-1.427.683-.653 1.325-1.188 1.426-1.188.352 0 3.712-2.383 4.215-2.989.279-.336.677-.611.885-.611.368 0 2.799-1.703 3.853-2.7.29-.275.65-.5.8-.501.149 0 .901-.541 1.671-1.202.77-.66 1.715-1.302 2.1-1.426s.7-.393.7-.598.23-.373.512-.373c.281 0 .771-.36 1.088-.8s.799-.8 1.07-.8c.272 0 .944-.45 1.494-1 1.203-1.204 1.436-1.24 1.436-.224 0 .427.18.888.4 1.024s.4.856.4 1.6.18 1.464.4 1.6.4.685.4 1.221c0 1.121 1.24 4.179 1.694 4.179.168 0 .306.36.306.8s.144.8.32.8c.175 0 .549.635.83 1.412s.947 1.849 1.48 2.382c.534.533.97 1.102.97 1.263 0 .495 4.968 5.339 5.477 5.341.263.001.713.318 1 .704.288.386 1.243 1.061 2.123 1.5s1.66.933 1.733 1.098c.074.165.479.3.9.3.422 0 .767.153.767.339 0 .424 3.759 1.661 5.046 1.661.525 0 .954.18.954.4s.889.4 1.976.4 2.088.18 2.224.4 1.846.4 3.8.4 3.664-.18 3.8-.4 1.137-.4 2.224-.4 1.976-.156 1.976-.347.696-.441 1.546-.555c1.731-.232 9.254-3.75 9.254-4.327 0-.204.179-.371.397-.371.998 0 8.003-6.99 8.003-7.986 0-.228.177-.414.392-.414.216 0 .506-.45.644-1s.411-1 .607-1c.197 0 .357-.36.357-.8s.138-.8.306-.8c.417 0 1.694-3.017 1.694-4.003 0-.438.18-.797.4-.797s.4-.63.4-1.4.18-1.4.4-1.4c.225 0 .4-1.125.4-2.576 0-1.432.194-2.697.437-2.847.279-.172.347-1.011.188-2.323-.137-1.13-.353-3.134-.48-4.454-.128-1.32-.392-2.571-.588-2.78-.197-.209-.357-.884-.357-1.5s-.18-1.12-.4-1.12-.4-.387-.4-.86c0-.829-1.885-5.13-2.427-5.54-.146-.11-.385-.584-.531-1.053-.147-.47-.801-1.413-1.454-2.097-.653-.683-1.188-1.401-1.188-1.594 0-.457-3.599-4.056-4.056-4.056-.193 0-.916-.54-1.607-1.2s-1.396-1.2-1.568-1.2c-.171 0-.55-.225-.84-.5-.892-.843-3.864-2.252-5.335-2.528-.767-.143-1.394-.421-1.394-.617 0-.195-.529-.355-1.176-.355s-1.288-.18-1.424-.4-.946-.4-1.8-.4-1.664-.18-1.8-.4-1.767-.4-3.624-.4c-3.109 0-3.376-.063-3.376-.8 0-.44.18-.8.4-.8s.4-.372.4-.826c0-.455.167-1.139.371-1.52 1.289-2.408 1.273-17.485-.019-18.284-.194-.119-.352-.657-.352-1.194s-.18-.976-.4-.976-.4-.272-.4-.605-.16-.918-.356-1.3c-.195-.382-.69-1.415-1.1-2.295-.409-.88-.879-1.66-1.044-1.733-.165-.074-.3-.389-.3-.7 0-.312-.18-.567-.4-.567s-.4-.227-.4-.504c0-.606-1.873-2.696-2.416-2.696-.211 0-.384-.245-.384-.544s-.472-.884-1.049-1.3-1.252-.989-1.5-1.275c-1.235-1.42-2.495-2.481-2.947-2.481-.277 0-.505-.135-.507-.3s-.407-.497-.9-.737c-.493-.241-1.527-.766-2.297-1.168-2.337-1.219-2.765-1.395-3.395-1.395-.333 0-.605-.16-.605-.355s-.495-.456-1.1-.579c-.605-.124-2.09-.424-3.3-.667-3.11-.624-9.72-.743-12.871-.232m10.471 16.312c2.484.829 4.4 1.708 4.4 2.019 0 .166.219.302.487.302.576 0 4.713 3.999 4.713 4.555 0 .21.301.714.668 1.121 1.77 1.955 3.116 12.068 1.721 12.931-.225.139-.368.465-.317.723.124.621-1.258 3.466-2.159 4.445-.392.427-.713.914-.713 1.082 0 .384-1.937 2.343-2.318 2.344-.155 0-.912.54-1.682 1.199-.77.66-1.987 1.31-2.704 1.445-.718.135-1.403.405-1.524.6s-.828.355-1.572.355-1.464.18-1.6.4-.946.4-1.8.4-1.664-.18-1.8-.4-.856-.4-1.6-.4-1.449-.156-1.568-.347c-.118-.192-.895-.457-1.727-.59-.846-.135-1.771-.599-2.097-1.052-.322-.446-.791-.811-1.044-.811-.597 0-4.164-3.567-4.164-4.164 0-.253-.365-.722-.811-1.044-.453-.326-.917-1.251-1.052-2.097-.133-.832-.398-1.609-.59-1.727-.191-.119-.347-1.004-.347-1.968s-.18-1.864-.4-2-.4-.597-.4-1.024.18-.776.4-.776.4-.799.4-1.776.18-1.888.4-2.024.4-.524.4-.863c0-.64 1.176-3.387 1.6-3.737.133-.11.738-.86 1.343-1.666 3.37-4.49 12.141-7.231 17.457-5.455m-163.435 22.264c.116.188 1.162.442 2.323.563 1.993.208 5.071 1.488 6.241 2.594.29.275.721.5.957.5.708 0 5.896 5.587 6.158 6.631.133.533.403.969.599.969.197 0 .357.36.357.8s.135.802.3.803c.165.002.626 1.051 1.025 2.332.888 2.85.723 13.265-.211 13.265-.173 0-.311.225-.308.5.026 2.04-6.967 10.7-8.64 10.7-.311 0-.566.138-.566.306 0 .365-2.963 1.694-3.779 1.694-.316 0-.685.18-.821.4s-.676.4-1.2.4-1.064.18-1.2.4c-.322.522-7.278.522-7.6 0-.136-.22-.665-.4-1.175-.4-1.282 0-6.225-1.983-6.225-2.498 0-.166-.188-.302-.417-.302-.719 0-4.76-3.792-6.183-5.802-.44-.622-.98-1.325-1.2-1.564-.492-.534-1.8-4.303-1.8-5.188 0-.355-.18-.646-.4-.646-.245 0-.4-1.933-.4-5s.155-5 .4-5c.22 0 .4-.309.4-.687 0-3.088 5.91-11.396 8.749-12.297.468-.148.851-.438.851-.643s.36-.373.8-.373.8-.18.8-.4.27-.4.6-.4.6-.18.6-.4.495-.414 1.1-.432 1.91-.264 2.9-.548c2.087-.598 6.654-.78 6.965-.277m197.755 24.418c.081.242.41.439.733.439 2.055 0 7.592 5.143 9.023 8.381.442 1.001.999 2.228 1.237 2.729.614 1.29.55 8.221-.089 9.58-1.816 3.868-2.761 5.311-4.833 7.383-1.28 1.28-2.449 2.327-2.599 2.327-.411 0-3.164 1.321-3.392 1.627-.508.684-8 1.441-8 .809 0-.24-.63-.436-1.4-.436s-1.4-.18-1.4-.4-.45-.4-1-.4-1-.166-1-.368c0-.203-.54-.487-1.2-.632s-1.2-.429-1.2-.632c0-.202-.18-.368-.4-.368s-1.12-.72-2-1.6-1.6-1.78-1.6-2-.153-.4-.34-.4-.673-.81-1.082-1.8c-.408-.99-.885-1.8-1.06-1.8s-.318-.54-.318-1.2-.18-1.2-.4-1.2c-.239 0-.4-1.533-.4-3.8s.161-3.8.4-3.8c.22 0 .4-.328.4-.729 0-1.36 2.308-5.463 4.091-7.271 1.928-1.956 2.583-2.443 4.709-3.502.77-.384 1.492-.818 1.603-.965.6-.788 11.254-.762 11.517.028m-89.753 27.482c.348.133.633.583.633 1 0 .416.18.757.4.757s.4.248.4.551.27.775.6 1.049.6.836.6 1.249.18.751.4.751.4.255.4.567c0 .311.135.626.3.7.165.073.658.853 1.096 1.733s.897 1.69 1.021 1.8c.357.318 1.583 3.076 1.583 3.56 0 .242.146.44.325.44s.573.63.875 1.4.675 1.4.828 1.4.362.434.463.964c.192 1.002-.266 1.564-2.365 2.9-.619.395-1.216.818-1.326.94s-1.19.931-2.4 1.796-2.29 1.689-2.4 1.831-.785.557-1.5.923c-.715.367-1.3.842-1.3 1.056 0 .215-.245.39-.545.39s-.975.409-1.5.909c-.525.499-1.45 1.16-2.055 1.467-.605.308-1.1.709-1.1.892 0 .182-.188.332-.417.332-.392 0-.845.313-2.168 1.5-.307.275-.711.5-.898.5s-.6.36-.917.8-.764.8-.992.8c-.229 0-.901.45-1.495 1-.593.55-1.251 1-1.462 1s-.444.135-.518.3c-.073.165-.898.798-1.833 1.406s-1.7 1.283-1.7 1.5-.283.394-.629.394c-.667 0-1.771-.919-1.771-1.476 0-.182-.45-.817-1-1.411-.55-.593-1-1.176-1-1.295 0-.451-2.891-4.218-3.238-4.218-.199 0-.362-.289-.362-.642 0-.61-1.02-2.085-2.797-4.044-.442-.487-.803-1.064-.803-1.282 0-.217-.45-.846-1-1.396-1.215-1.215-.513-3.436 1.087-3.436.191 0 .833-.45 1.426-1 .594-.55 1.24-1 1.436-1s.648-.328 1.004-.728c.356-.401 1.232-1.07 1.947-1.487.715-.416 1.3-.899 1.3-1.071 0-.173.255-.314.567-.314.311 0 .626-.153.7-.34.073-.187.898-.82 1.833-1.405.935-.586 1.7-1.243 1.7-1.46s.26-.395.579-.395c.318 0 1.803-.904 3.3-2.009 1.496-1.105 2.901-2.14 3.121-2.3.221-.16 1.064-.786 1.874-1.391s1.625-1.1 1.811-1.1.598-.36.915-.8.764-.8.992-.8c.229 0 .901-.45 1.495-1 .593-.55 1.233-1 1.423-1s.737-.45 1.215-1c.962-1.106.948-1.1 1.842-.757m52.237 232.439c-2.088.083-3.969.323-4.18.534s-1.158.384-2.104.384-1.72.18-1.72.4-.63.4-1.4.4-1.4.155-1.4.344c0 .19-.944.456-2.098.593-1.153.137-2.158.432-2.233.656s-.571.407-1.102.407c-.532 0-.967.18-.967.4s-.36.4-.8.4-.8.166-.8.368c0 .203-.521.483-1.159.623-.637.14-1.475.604-1.862 1.032-.386.427-.853.777-1.036.777-.646 0-5.543 4.302-5.543 4.869 0 .202-.447.814-.993 1.361-1.051 1.05-3.126 5.152-3.628 7.17-.51 2.049-.669 11.47-.202 11.937.233.233.423.927.423 1.543s.18 1.12.4 1.12.4.261.4.58c0 1.639 4.628 7.651 7.404 9.62.62.44 1.332 1.001 1.581 1.247s.849.573 1.334.727c.484.154.881.448.881.653s.36.373.8.373.8.18.8.4.36.4.8.4.802.135.803.3c.002.165 1.127.628 2.5 1.029 1.374.401 2.81.896 3.192 1.1s1.136.371 1.676.371 1.077.154 1.194.343c.116.188 1.162.473 2.323.631 1.162.159 2.832.399 3.712.533 1.713.26 15.869.383 18.2.157 2.819-.272 6.618-.951 7.295-1.303.382-.199 1.237-.361 1.9-.361s1.205-.18 1.205-.4.439-.4.976-.4 1.075-.16 1.196-.355.865-.475 1.654-.623 2.006-.596 2.704-.995c.699-.399 1.9-1.063 2.67-1.476s1.49-.85 1.6-.97c.11-.121.83-.659 1.6-1.195 1.87-1.304 5.109-4.668 5.411-5.621.134-.421.411-.765.616-.765s.373-.27.373-.6.18-.6.4-.6.4-.349.4-.776.17-.882.377-1.01.498-1.041.646-2.028c.148-.988.429-1.894.623-2.015.459-.283.462-9.967.004-10.876-.193-.382-.671-1.726-1.062-2.986-.392-1.26-1.044-2.648-1.45-3.083-.406-.436-.738-.954-.738-1.151 0-.564-6.425-6.875-7-6.875-.128 0-.627-.367-1.109-.815-.481-.449-1.329-.927-1.883-1.062s-1.098-.353-1.208-.485c-.447-.532-2.039-1.238-2.795-1.238-.443 0-.805-.174-.805-.386 0-.213-.9-.506-2-.652s-2-.422-2-.614c0-.191-.63-.348-1.4-.348s-1.4-.18-1.4-.4-.732-.4-1.626-.4c-.895 0-1.93-.158-2.3-.352-.792-.413-12.606-.783-18.07-.566m84.396.15c-5.706.437-8.128.777-8.58 1.207-.209.198-.963.361-1.676.361s-1.393.156-1.511.346c-.117.19-.814.444-1.548.563-1.48.24-5.21 1.873-5.418 2.372-.074.176-.391.319-.706.319-.846 0-5.761 5.116-5.761 5.997 0 .416-.18.867-.4 1.003s-.4 1.677-.4 3.424c0 1.851.167 3.176.4 3.176.22 0 .4.359.4.797 0 1.2 3.995 5.603 5.083 5.603.285 0 .517.18.517.4s.36.4.8.4.8.18.8.4.439.4.976.4 1.085.175 1.217.388c.132.214 1.132.507 2.223.652s1.984.42 1.984.612c0 .191.709.348 1.576.348s1.688.18 1.824.4 1.036.4 2 .4 1.854.163 1.977.363c.123.199 1.937.491 4.03.648s3.903.443 4.023.637c.119.194 1.096.352 2.17.352s2.064.18 2.2.4 1.126.4 2.2.4 2.049.156 2.168.348c.118.191 1.658.473 3.423.627s3.209.448 3.209.652c0 .205.315.37.7.367 3.095-.028 6.133 3.665 4.4 5.349-3.495 3.397-10.201 4.711-20.5 4.017-1.98-.133-3.78-.381-4-.551-.22-.169-1.251-.431-2.291-.582-1.04-.15-1.995-.443-2.123-.65s-.528-.377-.889-.377c-.948 0-4.505-3.938-4.774-5.286-.362-1.809-1.073-1.938-10.012-1.822l-8.311.108-.127 1.776c-.124 1.746.018 2.216 1.642 5.424.97 1.915 3.943 4.962 5.885 6.03.77.424 1.49.86 1.6.971.703.705 5.116 2.399 6.249 2.399.523 0 .951.18.951.4s.63.4 1.4.4 1.4.158 1.4.352c0 .193 1.035.456 2.3.584s3.11.359 4.1.515c2.405.378 18.723.424 22 .062 6.465-.715 7.227-.834 7.431-1.163.119-.193.836-.35 1.593-.35s1.376-.18 1.376-.4.452-.4 1.005-.4 1.318-.169 1.7-.374c.382-.206 1.73-.858 2.995-1.447 1.265-.59 2.3-1.232 2.3-1.426s.265-.353.589-.353c.748 0 4.211-3.435 4.211-4.177 0-.306.205-.625.455-.708.578-.193.937-5.516.57-8.453-.289-2.31-3.658-6.662-5.157-6.662-.331 0-.661-.135-.735-.3-.277-.623-3.742-2.144-5.403-2.372-.952-.13-1.73-.392-1.73-.582s-.619-.346-1.376-.346-1.488-.18-1.624-.4-.788-.4-1.45-.4c-.661 0-1.529-.175-1.929-.389-.399-.213-2.457-.51-4.573-.659-2.117-.148-3.848-.424-3.848-.611 0-.188-1.069-.341-2.376-.341s-2.488-.18-2.624-.4-1.216-.4-2.4-.4-2.251-.158-2.37-.352c-.12-.194-1.751-.48-3.624-.636s-3.406-.448-3.406-.648-.352-.364-.781-.364c-1.67 0-4.244-1.622-4.446-2.8-1.274-7.433 26.436-7.905 29.489-.503l.702 1.703h9.118 9.118v-1.206c0-3.224-4.207-9.244-7.102-10.163-.494-.157-.898-.453-.898-.658s-.36-.373-.8-.373-.8-.18-.8-.4-.45-.4-1-.4-1-.174-1-.386c0-.213-.9-.506-2-.652s-2-.422-2-.614c0-.191-.619-.348-1.376-.348s-1.488-.18-1.624-.4-1.122-.4-2.19-.4c-1.069 0-2.003-.157-2.077-.35-.19-.498-13.733-.801-18.733-.418m-356.718 20.068c.084 13.788.251 19.528.585 20.1.256.44.681 1.38.944 2.09.263.709.819 1.699 1.236 2.2 1.519 1.824 2.897 3.11 3.331 3.11.245 0 .705.36 1.022.8s.807.8 1.088.8c.282 0 .512.136.512.302 0 .329 2.345 1.229 4.1 1.573.605.119 1.1.375 1.1.57s.63.355 1.4.355 1.4.158 1.4.35c0 .32 1.105.512 6.4 1.114 4.309.489 17.612.572 21.2.132 2.09-.256 4.655-.558 5.7-.67s1.9-.366 1.9-.565c0-.198.63-.361 1.4-.361s1.4-.16 1.4-.355.495-.451 1.1-.57c1.755-.344 4.1-1.244 4.1-1.573 0-.166.27-.302.6-.302s.6-.158.6-.351c0-.194.506-.561 1.124-.817 2.004-.831 6.076-6.472 6.076-8.419 0-.41.225-.821.5-.913.388-.129.531-4.394.637-19.033l.136-18.867h-9.42-9.42l-.134 16.5c-.074 9.075-.244 16.86-.379 17.3s-.379 1.34-.542 2c-.709 2.865-4.763 5.749-8.5 6.049-1.473.117-3.056.396-3.517.618-1.646.791-11.753-.427-13.995-1.686-2.493-1.4-4.566-3.932-4.566-5.576 0-.443-.18-.805-.4-.805-.26 0-.4-6-.4-17.2v-17.2h-9.218-9.218zm105.317-18.789c-.221.269-.761 1.252-1.2 2.184-.439.933-.934 1.698-1.099 1.7-.165.003-.3.275-.3.605s-.18.6-.4.6-.4.347-.4.771c0 .425-.27 1.042-.6 1.372s-.6.793-.6 1.028c0 .236-.143.429-.318.429s-.652.81-1.06 1.8c-.409.99-.851 1.8-.985 1.8-.133 0-.496.585-.807 1.3s-.675 1.39-.809 1.5-.58.965-.993 1.9c-.412.935-.902 1.7-1.089 1.7-.186 0-.339.27-.339.6s-.166.6-.368.6c-.203 0-.482.516-.62 1.146-.139.63-.558 1.485-.932 1.9s-1.086 1.539-1.583 2.497c-1.344 2.595-2.27 4.232-2.519 4.457-.123.11-.608 1.032-1.079 2.05-.471 1.017-1.091 2.105-1.378 2.417-.286.311-.987 1.459-1.556 2.55-2.699 5.17-3.387 6.393-3.665 6.516-.165.074-.3.389-.3.7 0 .312-.135.569-.3.572-.165.002-.652.767-1.082 1.7-.43.932-1.105 2.173-1.5 2.757-1.838 2.718-1.775 2.738 8.682 2.738 8.089 0 9.4-.084 9.4-.6 0-.33.18-.6.4-.6s.4-.36.4-.8.138-.8.306-.8c.312 0 1.694-2.911 1.694-3.569 0-.201.155-.424.345-.498.189-.073.972-1.303 1.739-2.733l1.395-2.6 14.46-.105c12.687-.092 14.461-.031 14.461.5 0 .333.18.605.4.605s.4.36.4.8.137.8.305.8c.305 0 .414.178 1.874 3.061.429.847.88 1.629 1.004 1.739s.583.92 1.021 1.8.931 1.66 1.096 1.733c.165.074.3.389.3.7 0 .474 1.612.567 9.8.567h9.8v-1c0-.55-.16-1-.357-1-.196 0-.459-.409-.584-.908s-.595-1.302-1.044-1.783c-.448-.482-.815-1.153-.815-1.492s-.137-.617-.305-.617c-.305 0-.414-.178-1.874-3.061-.429-.847-.896-1.629-1.04-1.739-.143-.11-.758-1.1-1.367-2.2-.608-1.1-1.408-2.45-1.777-3s-1.019-1.675-1.445-2.5-.873-1.5-.993-1.5c-.121 0-.575-.808-1.009-1.796-.435-.988-.925-1.798-1.09-1.8s-.3-.274-.3-.604-.135-.602-.3-.605c-.165-.002-.66-.767-1.1-1.7-.745-1.579-1.371-2.516-2.433-3.644-.237-.252-.545-.911-.684-1.463s-.619-1.398-1.068-1.879c-.448-.482-.815-1.153-.815-1.492s-.16-.617-.357-.617c-.196 0-.469-.45-.607-1s-.428-1-.644-1c-.215 0-.392-.27-.392-.6s-.18-.6-.4-.6-.4-.36-.4-.8-.159-.8-.353-.8c-.195 0-.459-.315-.589-.7-.23-.687-1.06-2.106-1.462-2.5-.112-.11-.562-.92-1-1.8s-.931-1.66-1.096-1.733c-.165-.074-.3-.355-.3-.625s-.315-.85-.7-1.288c-.385-.439-.9-1.148-1.143-1.576-.551-.967-20.789-1.406-21.558-.467m50.78-.076c-.242.391 1.243 3.873 1.862 4.365.138.11.378.605.532 1.1.155.495.415.9.579.9s.546.63.848 1.4.696 1.4.875 1.4.325.276.325.614c0 .55 1.032 2.471 1.603 2.986.123.11.811 1.412 1.531 2.893s1.525 2.929 1.788 3.217c.458.501.963 1.424 4.213 7.69.799 1.54 1.562 2.89 1.697 3 .134.11.947 1.55 1.806 3.2s1.673 3.09 1.808 3.2.373.605.527 1.1c.155.495.449.9.654.9s.373.36.373.8.18.8.4.8.4.27.4.6.158.6.35.6c.193 0 .45.495.573 1.1.122.605.549 1.46.95 1.9.4.44 1.261 1.88 1.914 3.2s1.328 2.46 1.5 2.533c.172.074.313.389.313.7 0 .312.18.567.4.567s.4.27.4.6c0 .518 1.439.6 10.554.6 11.713 0 11.118.137 12.037-2.769.169-.533.638-1.325 1.043-1.759.405-.435 1.058-1.573 1.451-2.53.393-.956.85-1.74 1.015-1.741.165 0 .3-.279.3-.618s.372-1.014.827-1.5c.456-.486.928-1.378 1.05-1.983.123-.605.381-1.1.573-1.1.193 0 .35-.27.35-.6s.18-.6.4-.6.4-.36.4-.8.18-.8.4-.8.4-.257.4-.571c0-.315.236-.81.525-1.1.288-.291.782-1.114 1.097-1.829s.695-1.3.844-1.3.384-.516.522-1.146c.139-.63.56-1.485.937-1.9s1.038-1.564 1.469-2.554.879-1.89.995-2c.358-.339 1.591-2.51 2.501-4.4.476-.99.965-1.89 1.088-2 .368-.332 2.058-3.35 2.294-4.1.122-.385.38-.7.575-.7.194 0 .353-.36.353-.8s.135-.802.3-.805c.165-.002.657-.767 1.094-1.7.437-.932.888-1.785 1.002-1.895.115-.11.747-1.28 1.406-2.6s1.333-2.46 1.498-2.533c.165-.074.3-.479.3-.9 0-.962-18.033-1.216-18.93-.267-.62.656-2.67 4.781-2.67 5.372 0 .254-.135.521-.3.595-.44.195-2.5 4.23-2.5 4.897 0 .313-.135.629-.3.703-.44.195-2.5 4.23-2.5 4.897 0 .313-.142.629-.315.703-.378.16-2.485 4.433-2.485 5.04 0 .234-.142.486-.316.56-.36.151-2.484 4.551-2.484 5.144 0 .214-.18.389-.4.389s-.4.36-.4.8-.138.8-.306.8c-.321 0-1.694 2.92-1.694 3.603 0 .218-.18.397-.4.397s-.4.36-.4.8-.138.8-.306.8c-.321 0-1.694 2.92-1.694 3.603 0 .218-.159.397-.352.397-.388 0-3.248-5.575-3.248-6.33 0-.258-.18-.47-.4-.47s-.4-.36-.4-.8-.18-.8-.4-.8-.4-.175-.4-.389c0-.593-2.124-4.993-2.484-5.144-.174-.074-.316-.384-.316-.689 0-.715-2.068-5.136-2.484-5.311-.174-.074-.316-.479-.316-.9 0-.422-.16-.767-.355-.767-.196 0-.474-.63-.619-1.4-.144-.77-.434-1.4-.644-1.4s-.382-.36-.382-.8-.18-.8-.4-.8-.4-.27-.4-.6-.16-.6-.355-.6c-.196 0-.474-.63-.619-1.4-.144-.77-.434-1.4-.644-1.4s-.382-.36-.382-.8-.18-.8-.4-.8-.4-.27-.4-.6-.18-.6-.4-.6-.4-.354-.4-.786c0-.72-1.125-3.54-1.601-4.014-.11-.11-.455-.695-.767-1.3l-.567-1.1h-9.509c-6.414 0-9.596.141-9.777.435m128.873 9.596c1.842.274 3.348.649 3.348.833 0 .185.435.336.967.336.531 0 1.026.135 1.1.3.073.165.763.614 1.533.998 2.494 1.242 5.2 3.456 5.2 4.254 0 .178.356.647.792 1.041s.906 1.324 1.046 2.066c.139.743.412 1.448.607 1.569s.355 2.178.355 4.572-.16 4.451-.355 4.572-.473.851-.618 1.624c-.145.772-.435 1.404-.645 1.404s-.382.268-.382.595c0 .765-3.644 4.438-4.753 4.79-.466.148-.847.437-.847.642s-.36.373-.8.373-.8.18-.8.4-.324.4-.72.4-.897.177-1.114.394c-1.702 1.702-17.768 1.679-19.546-.029-.209-.201-.704-.365-1.1-.365s-.72-.136-.72-.302c0-.167-.572-.556-1.272-.866s-1.762-1.028-2.361-1.597-1.557-1.439-2.128-1.932c-.571-.494-1.039-1.169-1.039-1.5 0-.332-.18-.603-.4-.603s-.4-.36-.4-.8-.18-.8-.4-.8-.4-.345-.4-.767c0-.421-.202-.834-.45-.916-.297-.099-.45-1.638-.45-4.517s.153-4.418.45-4.517c.248-.082.45-.585.45-1.116 0-.532.159-.967.353-.967.195 0 .468-.315.607-.7.63-1.743 3.23-4.9 4.035-4.9.131 0 .636-.372 1.122-.827.486-.456 1.378-.928 1.983-1.05.605-.123 1.1-.38 1.1-.573 0-.192.272-.35.605-.35s.918-.162 1.3-.361c2.21-1.147 9.707-1.558 14.747-.808m-168.369 2.669c.142.385.364.79.492.9s.766 1.28 1.416 2.6c.651 1.32 1.324 2.46 1.496 2.533.172.074.313.479.313.9 0 .422.18.767.4.767s.4.179.4.397c0 .683 1.373 3.603 1.694 3.603.168 0 .306.345.306.767 0 .421.143.826.319.9.175.073.715.943 1.199 1.933l.881 1.8-9.259.108c-9.385.109-10.058.05-9.213-.795.26-.26.473-.797.473-1.193s.138-.72.306-.72c.321 0 1.694-2.92 1.694-3.603 0-.218.18-.397.4-.397s.4-.345.4-.767c0-.421.135-.826.3-.9.388-.172 2.5-4.401 2.5-5.005 0-.254.143-.521.319-.595.175-.073.716-.988 1.202-2.033.928-1.997 1.532-2.366 1.962-1.2" fill="#369"/><path d="m172.95 266.2c.001 2.42.066 3.358.146 2.085s.079-3.253-.002-4.4c-.08-1.147-.145-.105-.144 2.315m-.036 16c.003 1.1.081 1.503.173.895.092-.609.09-1.509-.005-2-.095-.492-.171.005-.168 1.105m-103.132 71.4c0 8.91.053 12.555.118 8.1.064-4.455.064-11.745 0-16.2-.065-4.455-.118-.81-.118 8.1m11.718 36.299c2.475.07 6.525.07 9 0 2.475-.071.45-.128-4.5-.128s-6.975.057-4.5.128m61.023 0c2.597.07 6.737.069 9.2-.001 2.462-.07.337-.127-4.723-.126-5.06 0-7.075.057-4.477.127m47.6 0c2.818.069 7.318.069 10 0s.377-.126-5.123-.126c-5.5.001-7.695.057-4.877.126" fill="#008080"/></g></svg>